<svg width="12" height="12" viewBox="0 0 12 12" fill="none" xmlns="http://www.w3.org/2000/svg">
<g clip-path="url(#clip0_17537_2340)">
<path d="M7.77966 1.72656H4.24379C3.84042 1.72656 3.45357 1.8906 3.16832 2.18261L0.732463 4.67613C0.505846 4.90813 0.505846 5.28425 0.732463 5.51625L5.46803 10.364C5.7683 10.6714 6.25512 10.6714 6.55539 10.364L11.291 5.51625C11.5176 5.28425 11.5176 4.90813 11.291 4.67613L8.85508 2.18261C8.56988 1.8906 8.18303 1.72656 7.77966 1.72656Z" fill="#FFA820"/>
<path d="M0.732463 4.67611C0.505846 4.90812 0.505846 5.28423 0.732463 5.51624L0.834029 5.62022C0.858463 5.16755 0.943658 4.73105 1.08161 4.3187L0.732463 4.67611ZM11.291 4.67611L10.0935 3.45032C10.5023 4.17089 10.7358 5.00397 10.7358 5.8916C10.7358 5.95754 10.7345 6.02318 10.732 6.0885L11.291 5.51624C11.5176 5.28423 11.5176 4.90812 11.291 4.67611Z" fill="#FEAC33"/>
<path d="M1.87502 3.50648L1.08157 4.31871C0.943613 4.73106 0.85843 5.16756 0.833984 5.62023L1.31887 6.11661C1.30267 5.96451 1.29455 5.81167 1.29455 5.65872C1.29455 4.87396 1.50603 4.13862 1.87502 3.50648ZM10.0935 3.45033L8.85505 2.18261C8.56982 1.89061 8.18298 1.72656 7.77961 1.72656H7.25204C8.77729 2.37979 9.84591 3.89443 9.84591 5.65871C9.84591 6.26041 9.72157 6.83303 9.49726 7.35239L10.7319 6.08852C10.7345 6.0232 10.7358 5.95756 10.7358 5.89162C10.7358 5.00397 10.5023 4.17089 10.0935 3.45033ZM5.01314 9.89836L5.46799 10.364C5.76826 10.6714 6.25508 10.6714 6.55535 10.364L7.35548 9.5449C6.81218 9.7949 6.2075 9.93439 5.57023 9.93439C5.38395 9.93442 5.19786 9.92238 5.01314 9.89836Z" fill="#FEB133"/>
<path d="M7.25242 1.72656H4.24411C3.84074 1.72656 3.45389 1.8906 3.16864 2.18261L1.87539 3.50648C1.5064 4.13862 1.29492 4.87396 1.29492 5.65871C1.29492 5.8134 1.30322 5.96615 1.31924 6.11659L2.07267 6.88788C1.87366 6.44113 1.76288 5.94644 1.76288 5.42581C1.76288 3.43936 3.37321 1.82903 5.35965 1.82903C7.3461 1.82903 8.95643 3.43936 8.95643 5.42581C8.95643 7.41225 7.3461 9.02257 5.35966 9.02257C4.80906 9.02257 4.28746 8.89867 3.82092 8.67752L5.01352 9.89836C5.19824 9.92238 5.38433 9.93442 5.57061 9.93439C6.20788 9.93439 6.81255 9.7949 7.35586 9.5449L9.49764 7.35239C9.72193 6.83303 9.84629 6.2604 9.84629 5.65871C9.84629 3.89441 8.77767 2.37978 7.25242 1.72656Z" fill="#FEB633"/>
<path d="M8.95624 5.42582C8.95624 3.43937 7.34591 1.82904 5.35946 1.82904C3.37302 1.82904 1.7627 3.43937 1.7627 5.42582C1.7627 5.94645 1.87347 6.44115 2.07249 6.88788L3.82073 8.67752C4.28725 8.89868 4.80887 9.02258 5.35947 9.02258C7.34591 9.02259 8.95624 7.41226 8.95624 5.42582ZM2.23065 5.19291C2.23065 3.58142 3.53702 2.27504 5.14851 2.27504C6.76 2.27504 8.06639 3.58142 8.06639 5.19291C8.06639 6.8044 6.76 8.11078 5.14851 8.11078C3.53702 8.11078 2.23065 6.80441 2.23065 5.19291Z" fill="#FFBC34"/>
<path d="M8.06621 5.19289C8.06621 3.5814 6.75984 2.27502 5.14834 2.27502C3.53685 2.27502 2.23047 3.5814 2.23047 5.19289C2.23047 6.80438 3.53684 8.11075 5.14833 8.11075C6.75982 8.11075 8.06621 6.80439 8.06621 5.19289ZM4.93738 7.19895C3.70084 7.19895 2.69842 6.19653 2.69842 4.95999C2.69842 3.72345 3.70084 2.72103 4.93738 2.72103C6.17392 2.72103 7.17634 3.72345 7.17634 4.95999C7.17634 6.19653 6.17393 7.19895 4.93738 7.19895Z" fill="#FFC134"/>
<path d="M4.9372 2.72101C3.70066 2.72101 2.69824 3.72343 2.69824 4.95997C2.69824 6.19651 3.70066 7.19893 4.9372 7.19893C6.17374 7.19893 7.17616 6.19651 7.17616 4.95997C7.17616 3.72343 6.17375 2.72101 4.9372 2.72101ZM4.72625 6.28712C3.86466 6.28712 3.1662 5.58866 3.1662 4.72706C3.1662 3.86546 3.86466 3.167 4.72625 3.167C5.58785 3.167 6.28631 3.86546 6.28631 4.72706C6.28631 5.58866 5.58785 6.28712 4.72625 6.28712Z" fill="#FFC634"/>
<path d="M3.16602 4.72711C3.16602 5.14087 3.33038 5.53767 3.62295 5.83024C3.91551 6.12281 4.31232 6.28717 4.72607 6.28717C5.13983 6.28717 5.53663 6.12281 5.8292 5.83024C6.12177 5.53767 6.28613 5.14087 6.28613 4.72711C6.28613 4.31336 6.12177 3.91655 5.8292 3.62398C5.53663 3.33142 5.13983 3.16705 4.72607 3.16705C4.31232 3.16705 3.91551 3.33142 3.62295 3.62398C3.33038 3.91655 3.16602 4.31336 3.16602 4.72711Z" fill="#FFCB34"/>
<path d="M7.77965 1.9375C7.95194 1.9375 8.12006 1.97174 8.27933 2.03929C8.43894 2.10696 8.58188 2.20478 8.7042 2.33001L11.1401 4.82351C11.2869 4.97386 11.2869 5.2185 11.1401 5.36884L6.4045 10.2166C6.2993 10.3243 6.1598 10.3836 6.01171 10.3836C5.86361 10.3836 5.72411 10.3243 5.61892 10.2166L0.883354 5.36884C0.736494 5.21849 0.736494 4.97385 0.883342 4.82351L3.3192 2.33C3.44153 2.20477 3.58448 2.10695 3.74409 2.03928C3.90336 1.97174 4.07148 1.93749 4.24376 1.93749L7.77965 1.9375ZM7.77965 1.72656H4.24378C3.8404 1.72656 3.45356 1.8906 3.16832 2.1826L0.732463 4.67611C0.505846 4.90812 0.505846 5.28423 0.732463 5.51624L5.46803 10.364C5.61816 10.5177 5.81494 10.5945 6.01171 10.5945C6.20848 10.5945 6.40526 10.5177 6.55539 10.364L11.291 5.51624C11.5176 5.28423 11.5176 4.90812 11.291 4.67611L8.85508 2.1826C8.56987 1.8906 8.18302 1.72656 7.77965 1.72656Z" fill="#FFA820"/>
<path d="M6.86117 3.50824H5.16181C4.96795 3.50824 4.78204 3.58659 4.64494 3.72602L3.47426 4.91699C3.36535 5.02778 3.36535 5.20741 3.47426 5.3182L5.7502 7.63354C5.78421 7.66839 5.82484 7.69609 5.86972 7.715C5.91459 7.73391 5.96279 7.74365 6.01148 7.74365C6.06018 7.74365 6.10838 7.73391 6.15325 7.715C6.19813 7.69609 6.23876 7.66839 6.27277 7.63354L8.54871 5.3182C8.65762 5.20741 8.65762 5.02778 8.54871 4.91699L7.37805 3.72602C7.24096 3.58659 7.05503 3.50824 6.86117 3.50824Z" fill="#FFE3B4"/>
<path d="M2.60126 4.06412C2.54559 4.0642 2.49217 4.04219 2.4527 4.00293C2.37001 3.92088 2.36948 3.78732 2.45152 3.70461L3.47596 2.67205C3.55802 2.58935 3.69156 2.58882 3.77427 2.67088C3.85697 2.75292 3.8575 2.88648 3.77546 2.96919L2.75102 4.00175C2.73143 4.02155 2.7081 4.03725 2.6824 4.04796C2.65669 4.05866 2.62911 4.06416 2.60126 4.06412ZM2.01953 4.65047C1.96386 4.65054 1.91044 4.62854 1.87097 4.58927C1.78826 4.50723 1.78774 4.37367 1.86979 4.29096L1.95684 4.20322C2.03889 4.12051 2.17245 4.11998 2.25515 4.20204C2.33786 4.28408 2.33839 4.41764 2.25633 4.50035L2.16929 4.58809C2.1497 4.60788 2.12637 4.62359 2.10067 4.6343C2.07496 4.64501 2.04738 4.6505 2.01953 4.65047Z" fill="white"/>
</g>
<rect x="0.5" y="0.5" width="11" height="11" stroke="#EBEDF0"/>
<defs>
<clipPath id="clip0_17537_2340">
<rect width="12" height="12" fill="white"/>
</clipPath>
</defs>
</svg>
